<svg id="Layer_1" data-name="Layer 1" xmlns="http://www.w3.org/2000/svg" viewBox="0 0 657.33 567.48"><defs><style>.cls-1{fill:none;}.cls-2{fill:#231f20;}</style></defs><path class="cls-1" d="M314.52,457.11H436.08V407.73H287.59A158.24,158.24,0,0,0,314.52,457.11Z" transform="translate(-101.84 -112.26)"/><path d="M436.08,113.48v-1.22H101.84v49.38H292.31A243.36,243.36,0,0,1,436.08,113.48Z" transform="translate(-101.84 -112.26)"/><path d="M198.47,309l-.15.81A245.17,245.17,0,0,0,193.56,358c0,.13,0,.26,0,.39H101.84v98.76H214.52a243.94,243.94,0,0,0,29.33,49.38H382.77a157.5,157.5,0,0,0,53.31,9.94l2,0A158.92,158.92,0,0,0,588.54,407.73H436.08v49.38H314.52a158.24,158.24,0,0,1-26.93-49.38H436.08V358.35H279.58V358a158,158,0,0,1,7.49-48.18c.09-.27.18-.54.26-.81a158.22,158.22,0,0,1,25.92-48.57H213.82A243.1,243.1,0,0,0,198.47,309Z" transform="translate(-101.84 -112.26)"/><path d="M661.62,457.11h97.54V358.35H596.55a157.59,157.59,0,0,1-8,49.38h89A243.36,243.36,0,0,1,661.62,457.11Z" transform="translate(-101.84 -112.26)"/><path d="M581.64,555.87H759.16V506.49H632.28A245.91,245.91,0,0,1,581.64,555.87Z" transform="translate(-101.84 -112.26)"/><path d="M759.16,161.64H436.08v37.85A158.2,158.2,0,0,0,313.25,260.4H662.31A244.09,244.09,0,0,0,633.5,211H759.16Z" transform="translate(-101.84 -112.26)"/><path class="cls-2" d="M102.13,634.15c0-18.79,13.69-45.35,45.71-45.35,26.1,0,45.58,16.47,45.58,43.5,0,26-18.32,47.44-46.28,47.44C115.36,679.74,102.13,655,102.13,634.15Zm80.16,1.4c0-27.84-16.94-42.81-35.27-42.81-19.37,0-33.87,12.76-33.87,38.16,0,27,16.24,44.43,37.12,44.43C160.71,675.33,182.29,669.3,182.29,635.55Z" transform="translate(-101.84 -112.26)"/><path class="cls-2" d="M307.8,663.15c.47,4.18,1.28,10.67,6.27,12.3a23.36,23.36,0,0,0,7.19,1c.58,0,1.27.12,1.27.7s-.34.93-1.74.93c-2.55,0-15.77-.35-20.06-.7-2.67-.23-3.25-.58-3.25-1.16s.23-.58.81-.81c.81-.35.7-2.09.46-4.18l-5.56-60.55-28.77,61c-2.44,5.1-2.79,6.14-3.83,6.14-.81,0-1.39-1.16-3.6-5.33-3-5.69-13-25.75-13.57-26.91-1-2.09-14.38-30.74-15.66-33.87L223,666.4c-.12,1.86-.23,3.48-.23,5.45,0,2.9,1.39,3.83,3.13,4.18a17.55,17.55,0,0,0,4.17.46c.7,0,1.16.23,1.16.58,0,.81-.58,1-1.74,1-4.29,0-10.2-.35-11.13-.35s-6.61.35-9.75.35c-1.16,0-2-.12-2-.93,0-.47.58-.7,1.16-.7a14.82,14.82,0,0,0,3.48-.35c3.83-.69,4.06-4.87,4.64-9.62l8.35-75.4c.12-1.28.58-2.32,1.28-2.32s1.16.46,1.74,1.74l35.49,73,34.11-72.85c.46-1,.93-1.85,1.74-1.85s1.16.93,1.39,3.13Z" transform="translate(-101.84 -112.26)"/><path class="cls-2" d="M343.3,624.06c0-18.09,0-21.34-.23-25-.23-4-1.39-5.92-3.94-6.5a15.15,15.15,0,0,0-3.6-.46c-.46,0-.93-.24-.93-.7,0-.7.58-.93,1.86-.93,3.83,0,11.13.35,11.71.35s7.89-.35,11.37-.35c1.28,0,1.86.23,1.86.93,0,.46-.47.7-.93.7a17.27,17.27,0,0,0-2.9.34c-3.13.58-4.06,2.56-4.29,6.62-.23,3.71-.23,7-.23,25v20.42c0,11.13,0,20.3.58,25.17.34,3.36,1,5.91,4.52,6.38,1.62.23,4.06.46,4.76.46,1,0,1.39.35,1.39.7,0,.58-.47.93-1.74.93-6.38,0-13.81-.35-14.39-.35s-7.88.35-11.36.35c-1.28,0-1.86-.24-1.86-.93,0-.35.23-.7,1.28-.7a15.37,15.37,0,0,0,3-.35c2.32-.46,3-3.13,3.48-6.49.58-4.87.58-14,.58-25.17Z" transform="translate(-101.84 -112.26)"/><path class="cls-2" d="M386.92,676.61c-1.63-.81-1.74-1.28-1.74-4.41,0-5.8.46-10.44.58-12.3.11-1.27.35-1.85.93-1.85s.81.35.81,1.27a20.39,20.39,0,0,0,.35,4.3c1.74,8.58,9.39,11.83,17.16,11.83,11.14,0,16.59-8,16.59-15.43,0-8-3.36-12.64-13.34-20.88L403,634.85C390.75,624.76,388,617.57,388,609.68c0-12.41,9.28-20.88,24-20.88A44.76,44.76,0,0,1,422.76,590a19.28,19.28,0,0,0,4.06.58c.93,0,1.16.23,1.16.81s-.46,4.41-.46,12.3c0,1.85-.23,2.66-.81,2.66s-.82-.58-.93-1.5a20.27,20.27,0,0,0-1.51-5.8c-.7-1.28-3.83-6.15-14.5-6.15-8,0-14.27,5-14.27,13.45,0,6.62,3,10.79,14.15,19.49l3.25,2.55c13.69,10.79,16.94,18,16.94,27.26A24.06,24.06,0,0,1,420,674.87c-5,3.48-11.25,4.87-17.52,4.87A35.17,35.17,0,0,1,386.92,676.61Z" transform="translate(-101.84 -112.26)"/><path class="cls-2" d="M451.65,676.61c-1.63-.81-1.74-1.28-1.74-4.41,0-5.8.46-10.44.58-12.3.11-1.27.35-1.85.93-1.85s.81.35.81,1.27a20.39,20.39,0,0,0,.35,4.3c1.74,8.58,9.39,11.83,17.16,11.83,11.14,0,16.59-8,16.59-15.43,0-8-3.36-12.64-13.34-20.88l-5.22-4.29c-12.29-10.09-15.08-17.28-15.08-25.17,0-12.41,9.28-20.88,24-20.88A44.76,44.76,0,0,1,487.49,590a19.2,19.2,0,0,0,4.06.58c.93,0,1.16.23,1.16.81s-.46,4.41-.46,12.3c0,1.85-.24,2.66-.82,2.66s-.81-.58-.92-1.5A20.6,20.6,0,0,0,489,599c-.7-1.28-3.83-6.15-14.5-6.15-8,0-14.27,5-14.27,13.45,0,6.62,3,10.79,14.15,19.49l3.25,2.55c13.69,10.79,16.94,18,16.94,27.26a24.06,24.06,0,0,1-9.86,19.26c-5,3.48-11.25,4.87-17.52,4.87A35.17,35.17,0,0,1,451.65,676.61Z" transform="translate(-101.84 -112.26)"/><path class="cls-2" d="M523.22,624.06c0-18.09,0-21.34-.23-25-.23-4-1.39-5.92-4-6.5a15,15,0,0,0-3.59-.46c-.47,0-.93-.24-.93-.7,0-.7.58-.93,1.86-.93,3.82,0,11.13.35,11.71.35s7.89-.35,11.37-.35c1.28,0,1.86.23,1.86.93,0,.46-.47.7-.93.7a17.27,17.27,0,0,0-2.9.34c-3.13.58-4.06,2.56-4.29,6.62-.24,3.71-.24,7-.24,25v20.42c0,11.13,0,20.3.58,25.17.35,3.36,1.05,5.91,4.53,6.38,1.62.23,4.06.46,4.75.46,1,0,1.4.35,1.4.7,0,.58-.47.93-1.74.93-6.38,0-13.81-.35-14.39-.35s-7.89.35-11.37.35c-1.27,0-1.85-.24-1.85-.93,0-.35.23-.7,1.27-.7a15.37,15.37,0,0,0,3-.35c2.32-.46,3-3.13,3.48-6.49.58-4.87.58-14,.58-25.17Z" transform="translate(-101.84 -112.26)"/><path class="cls-2" d="M559.3,634.15c0-18.79,13.68-45.35,45.7-45.35,26.1,0,45.59,16.47,45.59,43.5,0,26-18.33,47.44-46.29,47.44C572.52,679.74,559.3,655,559.3,634.15Zm80.15,1.4c0-27.84-16.93-42.81-35.26-42.81-19.37,0-33.87,12.76-33.87,38.16,0,27,16.24,44.43,37.12,44.43C617.88,675.33,639.45,669.3,639.45,635.55Z" transform="translate(-101.84 -112.26)"/><path class="cls-2" d="M673.68,643.9c0-41.88.23-26.8.11-49.3,0-4.53.35-5.8,1.28-5.8s2.9,2.55,4.06,3.71c1.74,2,19,20.65,36.88,39.79,11.49,12.29,24.13,26.44,27.84,30.27l-1.27-58.92c-.12-7.54-.93-10.1-4.53-11a23.61,23.61,0,0,0-5-.58c-1.28,0-1.63-.35-1.63-.82,0-.69.93-.81,2.32-.81,5.22,0,10.79.35,12.07.35s5.1-.35,9.86-.35c1.27,0,2.08.12,2.08.81,0,.47-.46.7-1.27.82s-1.63.23-3,.46c-3.25.7-4.06,2.44-4.06,10.44l-.23,67.74c0,7.66-.23,8.24-1,8.24s-2.32-1.28-8.47-7.43c-1.28-1.16-18-18.21-30.28-31.43C696,625.57,682.84,611,679.13,606.78l1.5,55.56c.24,9.51,1.4,12.53,4.53,13.46a25.3,25.3,0,0,0,5.8.69c.58,0,.93.23.93.7,0,.69-.7.93-2.09.93-6.61,0-11.25-.35-12.3-.35s-5.91.35-11.13.35c-1.16,0-1.86-.12-1.86-.93,0-.47.35-.7.93-.7a16.61,16.61,0,0,0,4.76-.69c2.9-.82,3.48-4.18,3.48-14.74Z" transform="translate(-101.84 -112.26)"/></svg>