<svg id="Layer_1" data-name="Layer 1" xmlns="http://www.w3.org/2000/svg" viewBox="0 0 657.33 443.61"><defs><style>.cls-1{fill:none;}</style></defs><path class="cls-1" d="M314.52,457.11H436.08V407.73H287.59A158.24,158.24,0,0,0,314.52,457.11Z" transform="translate(-101.84 -112.26)"/><path d="M436.08,113.48v-1.22H101.84v49.38H292.31A243.36,243.36,0,0,1,436.08,113.48Z" transform="translate(-101.84 -112.26)"/><path d="M198.47,309l-.15.81A245.17,245.17,0,0,0,193.56,358c0,.13,0,.26,0,.39H101.84v98.76H214.52a243.94,243.94,0,0,0,29.33,49.38H382.77a157.5,157.5,0,0,0,53.31,9.94l2,0A158.92,158.92,0,0,0,588.54,407.73H436.08v49.38H314.52a158.24,158.24,0,0,1-26.93-49.38H436.08V358.35H279.58V358a158,158,0,0,1,7.49-48.18c.09-.27.18-.54.26-.81a158.22,158.22,0,0,1,25.92-48.57H213.82A243.1,243.1,0,0,0,198.47,309Z" transform="translate(-101.84 -112.26)"/><path d="M661.62,457.11h97.54V358.35H596.55a157.59,157.59,0,0,1-8,49.38h89A243.36,243.36,0,0,1,661.62,457.11Z" transform="translate(-101.84 -112.26)"/><path d="M581.64,555.87H759.16V506.49H632.28A245.91,245.91,0,0,1,581.64,555.87Z" transform="translate(-101.84 -112.26)"/><path d="M759.16,161.64H436.08v37.85A158.2,158.2,0,0,0,313.25,260.4H662.31A244.09,244.09,0,0,0,633.5,211H759.16Z" transform="translate(-101.84 -112.26)"/></svg>